<svg xmlns="http://www.w3.org/2000/svg" version="1.1" xmlnsXlink="http://www.w3.org/1999/xlink" xmlnssvgjs="http://svgjs.dev/svgjs" width="1000" height="174" viewBox="0 0 1000 174"><g transform="matrix(1,0,0,1,-0.606057758163729,-0.3542639021260783)"><svg viewBox="0 0 396 69" data-background-color="#ffffff" preserveAspectRatio="xMidYMid meet" height="174" width="1000" xmlns="http://www.w3.org/2000/svg" xmlnsXlink="http://www.w3.org/1999/xlink"><g id="tight-bounds" transform="matrix(1,0,0,1,0.23999887223283167,0.14048657607375503)"><svg viewBox="0 0 395.52 68.7190294627383" height="68.7190294627383" width="395.52"><g><svg viewBox="0 0 395.52 68.7190294627383" height="68.7190294627383" width="395.52"><g><svg viewBox="0 0 395.52 68.7190294627383" height="68.7190294627383" width="395.52"><g id="textblocktransform"><svg viewBox="0 0 395.52 68.7190294627383" height="68.7190294627383" width="395.52" id="textblock"><g><svg viewBox="0 0 395.52 68.7190294627383" height="68.7190294627383" width="395.52"><g transform="matrix(1,0,0,1,0,0)"><svg width="395.52" viewBox="3.8499999046325684 -39.599998474121094 230.77999877929688 40.099998474121094" height="68.7190294627383" data-palette-color="#ea3c12"><path d="M36.05-16.3L36.1-11.5Q36.2-5.4 36.2-2.15L36.2-2.15Q36.2-1 35.58-0.35 34.95 0.3 33.75 0.3L33.75 0.3Q32.55 0.3 31.88-0.33 31.2-0.95 31.2-2L31.2-2 31.2-16.1Q31.2-23.05 30.7-26.35 30.2-29.65 29.4-29.65L29.4-29.65Q28.7-29.65 27.45-27.4 26.2-25.15 25.35-23L25.35-23Q24.05-19.9 22.8-14.1L22.8-14.1Q22.35-12.2 20-12.2L20-12.2Q17.75-12.2 17.25-13.95L17.25-13.95Q16.9-15 16.45-16.8L16.45-16.8Q15.4-20.8 14.6-22.9L14.6-22.9Q13.75-25.25 12.5-27.5 11.25-29.75 10.65-29.75L10.65-29.75Q9.2-29.75 8.9-16.45L8.9-16.45Q8.85-14.05 8.85-9.5L8.85-9.5 8.85-2Q8.85-1.05 8.18-0.48 7.5 0.1 6.25 0.1L6.25 0.1Q4.95 0.1 4.4-0.55 3.85-1.2 3.85-2.55L3.85-2.55Q3.85-5.2 3.95-9.9L3.95-9.9 4-16.55Q4-26.5 5.43-31.05 6.85-35.6 10.05-35.6L10.05-35.6Q13.7-35.6 15.95-30.98 18.2-26.35 19.95-19.35L19.95-19.35Q21.5-25.75 24.13-30.68 26.75-35.6 30.35-35.6L30.35-35.6Q32.55-35.6 33.77-33.38 35-31.15 35.5-26.98 36-22.8 36.05-16.3L36.05-16.3ZM63.5-6.3Q63.5-5.1 63.75-4.33 64-3.55 64.35-2.95 64.7-2.35 64.7-2.2L64.7-2.2Q64.7-1.4 64.02-0.8 63.35-0.2 62.5-0.2L62.5-0.2Q61.5-0.2 60.55-1.48 59.6-2.75 59.6-4L59.6-4 59.6-4.3Q58.6-2.2 56.65-1.07 54.7 0.05 51.95 0.05L51.95 0.05Q47.7 0.05 45.47-2.93 43.25-5.9 43.25-11.2L43.25-11.2 43.25-23.35Q43.25-24.2 43.92-24.7 44.6-25.2 45.65-25.2L45.65-25.2Q46.75-25.2 47.47-24.7 48.2-24.2 48.2-23.35L48.2-23.35 48.2-11.15Q48.2-3.9 52.55-3.9L52.55-3.9Q55.6-3.9 56.97-6.68 58.35-9.45 58.35-14.7L58.35-14.7 58.35-23.35Q58.35-24.35 59-24.93 59.65-25.5 60.75-25.5L60.75-25.5Q61.9-25.5 62.6-24.9 63.3-24.3 63.3-23.35L63.3-23.35 63.5-6.3ZM74.1-0.45Q73-0.45 72.35-1.05 71.7-1.65 71.7-2.6L71.7-2.6 71.4-37.4Q71.4-38.4 72.12-39 72.85-39.6 73.95-39.6L73.95-39.6Q75.05-39.6 75.7-39 76.35-38.4 76.35-37.45L76.35-37.45 76.6-2.65Q76.6-1.65 75.9-1.05 75.2-0.45 74.1-0.45L74.1-0.45ZM98.39-8.75Q99.54-8.75 100.04-8.25 100.54-7.75 100.54-6.55L100.54-6.55Q100.54-3.7 98.69-1.83 96.84 0.05 93.99 0.05L93.99 0.05Q90.04 0.05 88.29-3.33 86.54-6.7 86.54-13.9L86.54-13.9Q86.54-16.45 86.69-19L86.69-19 84.29-19.15Q82.34-19.25 82.34-21.2L82.34-21.2Q82.34-22.2 82.87-22.68 83.39-23.15 84.59-23.1L84.59-23.1 87.04-22.95Q87.34-26.1 88.19-31.7L88.19-31.7Q88.49-33.5 90.64-33.5L90.64-33.5Q91.89-33.5 92.57-32.85 93.24-32.2 93.14-31.3L93.14-31.3Q92.44-26.95 91.94-22.7L91.94-22.7Q94.64-22.6 95.49-22.6L95.49-22.6Q96.44-22.6 96.89-22.18 97.34-21.75 97.34-20.85L97.34-20.85Q97.34-19.75 96.87-19.33 96.39-18.9 95.14-18.85L95.14-18.85 91.59-18.85Q91.44-16.45 91.44-13.9L91.44-13.9Q91.44-8.85 92.09-6.43 92.74-4 94.39-4L94.39-4Q96.29-4 96.44-6.95L96.44-6.95Q96.44-7.85 96.87-8.3 97.29-8.75 98.39-8.75L98.39-8.75ZM111.14-27.55Q109.59-27.55 108.59-28.58 107.59-29.6 107.59-31.15L107.59-31.15Q107.59-32.65 108.62-33.65 109.64-34.65 111.24-34.65L111.24-34.65Q112.84-34.65 113.82-33.7 114.79-32.75 114.79-31.2L114.79-31.2Q114.79-29.65 113.77-28.6 112.74-27.55 111.14-27.55L111.14-27.55ZM110.44-0.3Q109.29-0.3 108.59-0.85 107.89-1.4 107.89-2.4L107.89-2.4 108.39-22.7Q108.39-23.7 109.09-24.28 109.79-24.85 110.89-24.85L110.89-24.85Q111.99-24.85 112.72-24.25 113.44-23.65 113.44-22.65L113.44-22.65 112.94-2.35Q112.89-1.35 112.22-0.83 111.54-0.3 110.44-0.3L110.44-0.3ZM146.59-25.4Q151.19-25.4 153.11-22.25 155.04-19.1 155.04-13.55L155.04-13.55 154.94-1.95Q154.94-1.05 154.34-0.53 153.74 0 152.64 0L152.64 0Q151.54 0 150.89-0.55 150.24-1.1 150.24-2.1L150.24-2.1 150.24-13.55Q150.24-17.9 149.36-19.78 148.49-21.65 146.19-21.65L146.19-21.65Q144.19-21.65 143.11-19.2 142.04-16.75 141.99-13.05L141.99-13.05 141.99-9.35 141.99-2.1Q141.99-0.1 139.64-0.1L139.64-0.1Q137.09-0.1 137.09-2.15L137.09-2.15 137.14-10.8 137.14-13.05Q137.14-16.6 135.96-19.03 134.79-21.45 132.69-21.45L132.69-21.45Q129.59-21.45 128.14-14.6L128.14-14.6Q127.74-12.45 127.74-8.4L127.74-8.4 127.74-5 127.74-1.85Q127.74-1.05 127.06-0.58 126.39-0.1 125.49-0.1L125.49-0.1Q124.39-0.1 123.71-0.55 123.04-1 123.04-1.9L123.04-1.9Q123.04-12.75 122.99-19L122.99-19Q122.94-20.2 122.71-20.78 122.49-21.35 122.04-21.75L122.04-21.75Q121.99-21.8 121.71-22.05 121.44-22.3 121.44-22.75L121.44-22.75Q121.44-23.7 122.14-24.3 122.84-24.9 123.69-24.9L123.69-24.9Q124.54-24.9 125.49-23.55L125.49-23.55Q126.44-22.3 126.44-20.65L126.44-20.65 126.44-19.95Q127.29-22.4 128.94-23.83 130.59-25.25 132.99-25.25L132.99-25.25Q137.79-25.25 139.44-20.3L139.44-20.3Q140.29-22.75 142.14-24.08 143.99-25.4 146.59-25.4L146.59-25.4ZM185.14-4Q185.89-3.9 186.31-3.5 186.74-3.1 186.74-2.15L186.74-2.15Q186.74-1.25 186.29-0.65 185.84-0.05 185.04-0.05L185.04-0.05Q182.99-0.05 181.96-0.65 180.94-1.25 180.09-2.9L180.09-2.9Q177.99 0.5 172.29 0.5L172.29 0.5Q166.49 0.5 163.74-3.03 160.99-6.55 160.99-11.8L160.99-11.8Q160.99-15.3 162.39-18.25 163.79-21.2 166.49-22.95 169.19-24.7 172.79-24.7L172.79-24.7Q175.09-24.7 176.86-23.8 178.64-22.9 179.54-21.35L179.54-21.35 179.69-22.6Q179.89-24.4 181.84-24.4L181.84-24.4Q183.14-24.4 183.69-23.83 184.24-23.25 184.14-22.4L184.14-22.4Q183.64-18.65 183.54-16.75L183.54-16.75Q183.39-14.95 183.39-12.05L183.39-12.05 183.39-8.75Q183.39-6.15 183.66-5.15 183.94-4.15 185.14-4L185.14-4ZM178.49-8.75Q178.54-11 178.54-14.9L178.54-14.9Q178.54-16.95 177.66-18.25 176.79-19.55 175.51-20.15 174.24-20.75 172.94-20.75L172.94-20.75Q170.69-20.75 169.11-19.43 167.54-18.1 166.76-16.05 165.99-14 165.99-11.8L165.99-11.8Q165.99-8.45 167.56-5.98 169.14-3.5 172.49-3.5L172.49-3.5Q175.14-3.5 176.79-4.85 178.44-6.2 178.49-8.75L178.49-8.75ZM205.18-25.8Q208.38-25.8 210.28-23.75 212.18-21.7 212.18-18.65L212.18-18.65Q212.18-15.75 210.38-14.1 208.58-12.45 205.73-12.45L205.73-12.45Q204.48-12.45 203.96-12.83 203.43-13.2 203.43-14.15L203.43-14.15Q203.43-15 203.81-15.38 204.18-15.75 204.93-15.8L204.93-15.8Q208.08-16.05 208.08-18.75L208.08-18.75Q208.08-20.05 207.36-20.95 206.63-21.85 205.13-21.85L205.13-21.85Q203.38-21.85 202.01-20.2 200.63-18.55 199.81-16.2 198.98-13.85 198.83-11.75L198.83-11.75Q198.48-8 198.48-3.35L198.48-3.35Q198.48-1.1 197.98-0.35 197.48 0.4 196.08 0.4L196.08 0.4Q194.73 0.4 194.16-0.18 193.58-0.75 193.58-2.1L193.58-2.1Q193.53-3.05 193.53-11.15L193.53-11.15Q193.53-15.2 192.98-20.5L192.98-20.5 192.68-24.35Q192.63-25.3 193.26-25.85 193.88-26.4 195.03-26.4L195.03-26.4Q197.03-26.4 197.13-24.6L197.13-24.6 197.48-19.5Q198.38-22.35 200.38-24.08 202.38-25.8 205.18-25.8L205.18-25.8ZM232.48-8.75Q233.63-8.75 234.13-8.25 234.63-7.75 234.63-6.55L234.63-6.55Q234.63-3.7 232.78-1.83 230.93 0.05 228.08 0.05L228.08 0.05Q224.13 0.05 222.38-3.33 220.63-6.7 220.63-13.9L220.63-13.9Q220.63-16.45 220.78-19L220.78-19 218.38-19.15Q216.43-19.25 216.43-21.2L216.43-21.2Q216.43-22.2 216.96-22.68 217.48-23.15 218.68-23.1L218.68-23.1 221.13-22.95Q221.43-26.1 222.28-31.7L222.28-31.7Q222.58-33.5 224.73-33.5L224.73-33.5Q225.98-33.5 226.66-32.85 227.33-32.2 227.23-31.3L227.23-31.3Q226.53-26.95 226.03-22.7L226.03-22.7Q228.73-22.6 229.58-22.6L229.58-22.6Q230.53-22.6 230.98-22.18 231.43-21.75 231.43-20.85L231.43-20.85Q231.43-19.75 230.96-19.33 230.48-18.9 229.23-18.85L229.23-18.85 225.68-18.85Q225.53-16.45 225.53-13.9L225.53-13.9Q225.53-8.85 226.18-6.43 226.83-4 228.48-4L228.48-4Q230.38-4 230.53-6.95L230.53-6.95Q230.53-7.85 230.96-8.3 231.38-8.75 232.48-8.75L232.48-8.75Z" opacity="1" transform="matrix(1,0,0,1,0,0)" fill="#ea3c12" class="wordmark-text-0" data-fill-palette-color="primary" id="text-0"></path></svg></g></svg></g></svg></g></svg></g></svg></g><defs></defs></svg><rect width="395.52" height="68.7190294627383" fill="none" stroke="none" visibility="hidden"></rect></g></svg></g></svg>